<?xml version="1.0" encoding="utf-8"?>
<!-- Generator: Adobe Illustrator 16.0.0, SVG Export Plug-In . SVG Version: 6.00 Build 0)  -->
<!DOCTYPE svg PUBLIC "-//W3C//DTD SVG 1.1//EN" "http://www.w3.org/Graphics/SVG/1.1/DTD/svg11.dtd">
<svg version="1.1" id="Layer_1" xmlns="http://www.w3.org/2000/svg" xmlns:xlink="http://www.w3.org/1999/xlink" x="0px" y="0px"
	 width="220.608px" height="309.267px" viewBox="0 0 220.608 309.267" enable-background="new 0 0 220.608 309.267"
	 xml:space="preserve">
<g>
	<defs>
		<rect id="SVGID_1_" width="220.608" height="309.267"/>
	</defs>
	<clipPath id="SVGID_2_">
		<use xlink:href="#SVGID_1_"  overflow="visible"/>
	</clipPath>
	<path clip-path="url(#SVGID_2_)" fill="#D6251D" d="M19.329,0h112.583c1.055,0,2.066,0.418,2.813,1.162l84.709,84.38
		c0.751,0.749,1.174,1.765,1.174,2.825v197.583c0,12.877-10.439,23.316-23.316,23.316H23.315C10.438,309.267,0,298.828,0,285.951
		V19.329C0,8.65,8.66,0,19.329,0"/>
	<path clip-path="url(#SVGID_2_)" fill="#B53629" d="M220.608,86.788h-67.372c-10.671,0-19.329-8.659-19.329-19.329V0
		L220.608,86.788z"/>
	<path clip-path="url(#SVGID_2_)" fill="#FFFFFF" d="M181.433,152.005c3.669,0,5.467-3.198,5.467-6.298
		c0-3.209-1.874-6.308-5.467-6.308h-20.896c-4.086,0-6.363,3.384-6.363,7.119v51.354c0,4.577,2.606,7.118,6.133,7.118
		c3.505,0,6.123-2.541,6.123-7.118v-14.096h12.639c3.921,0,5.882-3.21,5.882-6.396c0-3.12-1.961-6.222-5.882-6.222h-12.639v-19.155
		H181.433z M110.802,139.399H95.513c-4.152,0-7.098,2.848-7.098,7.075v51.442c0,5.245,4.238,6.89,7.272,6.89h16.046
		c18.989,0,31.529-12.496,31.529-31.785C143.253,152.629,131.447,139.399,110.802,139.399 M111.536,192.124h-9.32v-40.042h8.4
		c12.716,0,18.246,8.532,18.246,20.305C128.862,183.405,123.43,192.124,111.536,192.124 M55.527,139.399H40.38
		c-4.282,0-6.67,2.825-6.67,7.119v51.354c0,4.577,2.738,7.118,6.418,7.118c3.679,0,6.417-2.541,6.417-7.118v-14.993h9.495
		c11.719,0,21.39-8.304,21.39-21.653C77.431,148.161,68.1,139.399,55.527,139.399 M55.275,170.833h-8.729v-19.375h8.729
		c5.389,0,8.817,4.207,8.817,9.693C64.08,166.627,60.664,170.833,55.275,170.833"/>
</g>
</svg>
