<?xml version="1.0" encoding="utf-8"?>
<!-- Generator: Adobe Illustrator 16.0.0, SVG Export Plug-In . SVG Version: 6.00 Build 0)  -->
<!DOCTYPE svg PUBLIC "-//W3C//DTD SVG 1.1//EN" "http://www.w3.org/Graphics/SVG/1.1/DTD/svg11.dtd">
<svg version="1.1" id="Layer_1" xmlns="http://www.w3.org/2000/svg" xmlns:xlink="http://www.w3.org/1999/xlink" x="0px" y="0px"
	 width="220.608px" height="309.267px" viewBox="0 0 220.608 309.267" enable-background="new 0 0 220.608 309.267"
	 xml:space="preserve">
<g>
	<defs>
		<rect id="SVGID_1_" width="220.608" height="309.267"/>
	</defs>
	<clipPath id="SVGID_2_">
		<use xlink:href="#SVGID_1_"  overflow="visible"/>
	</clipPath>
	<path clip-path="url(#SVGID_2_)" fill="#1565C0" d="M19.33,0h112.583c1.056,0,2.066,0.418,2.813,1.162l84.709,84.38
		c0.751,0.749,1.173,1.765,1.173,2.825v197.583c0,12.877-10.438,23.316-23.315,23.316H23.315C10.438,309.267,0,298.828,0,285.951
		V19.329C0,8.65,8.66,0,19.33,0"/>
	<path clip-path="url(#SVGID_2_)" fill="#064C91" d="M220.607,86.788h-67.372c-10.67,0-19.329-8.659-19.329-19.329V0L220.607,86.788
		z"/>
	<path clip-path="url(#SVGID_2_)" fill="#FFFFFF" d="M186.579,230.169h-68.732c-2.71,0-4.91-2.189-4.91-4.91v-98.191
		c0-2.71,2.2-4.909,4.91-4.909h68.732c2.71,0,4.91,2.199,4.91,4.909v98.191C191.489,227.98,189.289,230.169,186.579,230.169"/>
	<path clip-path="url(#SVGID_2_)" fill="#1976D2" d="M166.941,151.616h-49.096c-2.71,0-4.909-2.19-4.909-4.91
		c0-2.719,2.199-4.909,4.909-4.909h49.096c2.71,0,4.909,2.199,4.909,4.909C171.851,149.417,169.651,151.616,166.941,151.616"/>
	<path clip-path="url(#SVGID_2_)" fill="#1976D2" d="M166.941,171.254h-49.096c-2.71,0-4.909-2.189-4.909-4.909
		c0-2.721,2.199-4.909,4.909-4.909h49.096c2.71,0,4.909,2.199,4.909,4.909S169.651,171.254,166.941,171.254"/>
	<path clip-path="url(#SVGID_2_)" fill="#1976D2" d="M166.941,190.893h-49.096c-2.71,0-4.909-2.189-4.909-4.91
		c0-2.72,2.199-4.909,4.909-4.909h49.096c2.71,0,4.909,2.199,4.909,4.909C171.851,188.694,169.651,190.893,166.941,190.893"/>
	<path clip-path="url(#SVGID_2_)" fill="#1976D2" d="M166.941,210.531h-49.096c-2.71,0-4.909-2.189-4.909-4.909
		s2.199-4.909,4.909-4.909h49.096c2.71,0,4.909,2.199,4.909,4.909S169.651,210.531,166.941,210.531"/>
	<path clip-path="url(#SVGID_2_)" fill="#FFFFFF" d="M120.979,103.66c-1.119-0.943-2.621-1.335-4.036-1.051L38.39,117.337
		c-2.318,0.432-4.006,2.465-4.006,4.821v108.011c0,2.356,1.679,4.388,4.006,4.821l78.552,14.728c0.305,0.06,0.599,0.088,0.904,0.088
		c1.138,0,2.248-0.392,3.132-1.129c1.13-0.932,1.776-2.316,1.776-3.779V107.431C122.755,105.967,122.108,104.592,120.979,103.66
		 M103.088,157.066l-4.91,44.195c-0.255,2.248-2.023,4.045-4.271,4.321c-0.207,0.029-0.403,0.039-0.609,0.039
		c-2.023,0-3.868-1.257-4.595-3.182l-10.134-27.021L68.437,202.44c-0.787,2.102-2.848,3.388-5.126,3.151
		c-2.229-0.235-4.016-1.963-4.33-4.192l-4.911-34.366c-0.382-2.671,1.484-5.165,4.164-5.548c2.691-0.394,5.175,1.481,5.558,4.163
		l2.19,15.356l7.982-21.297c1.434-3.83,7.758-3.83,9.201,0l7.522,20.05l2.64-23.782c0.305-2.689,2.799-4.624,5.421-4.34
		C101.448,151.95,103.382,154.375,103.088,157.066"/>
</g>
</svg>
