<?xml version="1.0" encoding="utf-8"?>
<!-- Generator: Adobe Illustrator 16.0.0, SVG Export Plug-In . SVG Version: 6.00 Build 0)  -->
<!DOCTYPE svg PUBLIC "-//W3C//DTD SVG 1.1//EN" "http://www.w3.org/Graphics/SVG/1.1/DTD/svg11.dtd">
<svg version="1.1" id="Layer_1" xmlns="http://www.w3.org/2000/svg" xmlns:xlink="http://www.w3.org/1999/xlink" x="0px" y="0px"
	 width="220.608px" height="309.267px" viewBox="0 0 220.608 309.267" enable-background="new 0 0 220.608 309.267"
	 xml:space="preserve">
<g>
	<defs>
		<rect id="SVGID_1_" width="220.608" height="309.267"/>
	</defs>
	<clipPath id="SVGID_2_">
		<use xlink:href="#SVGID_1_"  overflow="visible"/>
	</clipPath>
	<path clip-path="url(#SVGID_2_)" fill="#CCDDED" d="M19.33,0h112.583c1.056,0,2.066,0.418,2.813,1.162l84.709,84.38
		c0.751,0.749,1.173,1.765,1.173,2.825v197.583c0,12.877-10.438,23.316-23.315,23.316H23.315C10.438,309.267,0,298.828,0,285.951
		V19.329C0,8.65,8.66,0,19.33,0"/>
	<path clip-path="url(#SVGID_2_)" fill="#4B759B" d="M220.607,86.788h-67.372c-10.67,0-19.329-8.659-19.329-19.329V0L220.607,86.788
		z"/>
	<path clip-path="url(#SVGID_2_)" fill="#4B759B" d="M174.852,134.889H45.756c-2.71,0-4.909-2.19-4.909-4.91
		c0-2.719,2.199-4.909,4.909-4.909h129.096c2.71,0,4.909,2.199,4.909,4.909C179.761,132.689,177.562,134.889,174.852,134.889"/>
	<path clip-path="url(#SVGID_2_)" fill="#4B759B" d="M174.852,174.965H45.756c-2.71,0-4.909-2.189-4.909-4.909
		c0-2.722,2.199-4.91,4.909-4.91h129.096c2.71,0,4.909,2.199,4.909,4.91C179.761,172.766,177.562,174.965,174.852,174.965"/>
	<path clip-path="url(#SVGID_2_)" fill="#4B759B" d="M174.852,215.041H45.756c-2.71,0-4.909-2.189-4.909-4.909
		c0-2.721,2.199-4.909,4.909-4.909h129.096c2.71,0,4.909,2.199,4.909,4.909S177.562,215.041,174.852,215.041"/>
	<path clip-path="url(#SVGID_2_)" fill="#4B759B" d="M174.852,255.117H45.756c-2.71,0-4.909-2.189-4.909-4.909
		c0-2.722,2.199-4.91,4.909-4.91h129.096c2.71,0,4.909,2.199,4.909,4.91C179.761,252.917,177.562,255.117,174.852,255.117"/>
</g>
</svg>
