<?xml version="1.0" encoding="utf-8"?>
<!-- Generator: Adobe Illustrator 16.0.0, SVG Export Plug-In . SVG Version: 6.00 Build 0)  -->
<!DOCTYPE svg PUBLIC "-//W3C//DTD SVG 1.1//EN" "http://www.w3.org/Graphics/SVG/1.1/DTD/svg11.dtd">
<svg version="1.1" id="Layer_1" xmlns="http://www.w3.org/2000/svg" xmlns:xlink="http://www.w3.org/1999/xlink" x="0px" y="0px"
	 width="220.608px" height="309.267px" viewBox="0 0 220.608 309.267" enable-background="new 0 0 220.608 309.267"
	 xml:space="preserve">
<g>
	<defs>
		<rect id="SVGID_1_" width="220.608" height="309.267"/>
	</defs>
	<clipPath id="SVGID_2_">
		<use xlink:href="#SVGID_1_"  overflow="visible"/>
	</clipPath>
	<path clip-path="url(#SVGID_2_)" fill="#2E7D32" d="M19.33,0h112.583c1.056,0,2.066,0.418,2.813,1.162l84.709,84.38
		c0.751,0.749,1.173,1.765,1.173,2.825v197.583c0,12.877-10.438,23.316-23.315,23.316H23.315C10.438,309.267,0,298.828,0,285.951
		V19.329C0,8.65,8.66,0,19.33,0"/>
	<path clip-path="url(#SVGID_2_)" fill="#08590A" d="M220.607,86.788h-67.372c-10.67,0-19.329-8.659-19.329-19.329V0L220.607,86.788
		z"/>
	<path clip-path="url(#SVGID_2_)" fill="#FFFFFF" d="M184.486,230.025H115.25c-2.73,0-4.946-2.216-4.946-4.945v-98.911
		c0-2.729,2.216-4.945,4.946-4.945h69.236c2.73,0,4.946,2.216,4.946,4.945v98.911C189.433,227.809,187.217,230.025,184.486,230.025"
		/>
	<path clip-path="url(#SVGID_2_)" fill="#388E3C" d="M135.031,150.896H115.25c-2.73,0-4.946-2.216-4.946-4.946
		s2.216-4.945,4.946-4.945h19.781c2.73,0,4.945,2.215,4.945,4.945S137.762,150.896,135.031,150.896"/>
	<path clip-path="url(#SVGID_2_)" fill="#388E3C" d="M135.031,170.679H115.25c-2.73,0-4.946-2.217-4.946-4.945
		c0-2.731,2.216-4.947,4.946-4.947h19.781c2.73,0,4.945,2.216,4.945,4.947C139.977,168.462,137.762,170.679,135.031,170.679"/>
	<path clip-path="url(#SVGID_2_)" fill="#388E3C" d="M135.031,190.461H115.25c-2.73,0-4.946-2.217-4.946-4.946
		c0-2.73,2.216-4.946,4.946-4.946h19.781c2.73,0,4.945,2.216,4.945,4.946C139.977,188.245,137.762,190.461,135.031,190.461"/>
	<path clip-path="url(#SVGID_2_)" fill="#388E3C" d="M135.031,210.244H115.25c-2.73,0-4.946-2.217-4.946-4.946
		c0-2.73,2.216-4.946,4.946-4.946h19.781c2.73,0,4.945,2.216,4.945,4.946C139.977,208.027,137.762,210.244,135.031,210.244"/>
	<path clip-path="url(#SVGID_2_)" fill="#388E3C" d="M164.704,150.896h-9.891c-2.729,0-4.945-2.216-4.945-4.946
		s2.216-4.945,4.945-4.945h9.891c2.73,0,4.946,2.215,4.946,4.945S167.435,150.896,164.704,150.896"/>
	<path clip-path="url(#SVGID_2_)" fill="#388E3C" d="M164.704,170.679h-9.891c-2.729,0-4.945-2.217-4.945-4.945
		c0-2.731,2.216-4.947,4.945-4.947h9.891c2.73,0,4.946,2.216,4.946,4.947C169.65,168.462,167.435,170.679,164.704,170.679"/>
	<path clip-path="url(#SVGID_2_)" fill="#388E3C" d="M164.704,190.461h-9.891c-2.729,0-4.945-2.217-4.945-4.946
		c0-2.73,2.216-4.946,4.945-4.946h9.891c2.73,0,4.946,2.216,4.946,4.946C169.65,188.245,167.435,190.461,164.704,190.461"/>
	<path clip-path="url(#SVGID_2_)" fill="#388E3C" d="M164.704,210.244h-9.891c-2.729,0-4.945-2.217-4.945-4.946
		c0-2.73,2.216-4.946,4.945-4.946h9.891c2.73,0,4.946,2.216,4.946,4.946C169.65,208.027,167.435,210.244,164.704,210.244"/>
	<path clip-path="url(#SVGID_2_)" fill="#FFFFFF" d="M118.405,102.579c-1.127-0.94-2.642-1.346-4.066-1.049l-79.128,14.837
		c-2.344,0.435-4.036,2.472-4.036,4.856v108.801c0,2.374,1.692,4.422,4.036,4.857l79.128,14.837c0.297,0.059,0.604,0.089,0.91,0.089
		c1.148,0,2.266-0.396,3.156-1.137c1.137-0.941,1.79-2.346,1.79-3.81V106.387C120.195,104.913,119.542,103.518,118.405,102.579
		 M98.722,199.125c-0.94,0.82-2.098,1.227-3.255,1.227c-1.375,0-2.739-0.574-3.719-1.702l-14.381-16.428l-12.612,16.22
		c-0.978,1.257-2.432,1.91-3.906,1.91c-1.059,0-2.137-0.336-3.047-1.039c-2.146-1.681-2.542-4.788-0.86-6.944l13.788-17.724
		l-13.601-15.549c-1.8-2.047-1.592-5.173,0.466-6.973c2.037-1.8,5.163-1.612,6.973,0.465l12.343,14.104l14.65-18.832
		c1.691-2.147,4.797-2.542,6.943-0.861c2.147,1.682,2.542,4.788,0.861,6.944l-15.816,20.335l15.638,17.874
		C100.987,194.199,100.779,197.325,98.722,199.125"/>
</g>
</svg>
