<?xml version="1.0" encoding="utf-8"?>
<!-- Generator: Adobe Illustrator 16.0.0, SVG Export Plug-In . SVG Version: 6.00 Build 0)  -->
<!DOCTYPE svg PUBLIC "-//W3C//DTD SVG 1.1//EN" "http://www.w3.org/Graphics/SVG/1.1/DTD/svg11.dtd">
<svg version="1.1" id="Layer_1" xmlns="http://www.w3.org/2000/svg" xmlns:xlink="http://www.w3.org/1999/xlink" x="0px" y="0px"
	 width="220.608px" height="309.267px" viewBox="0 0 220.608 309.267" enable-background="new 0 0 220.608 309.267"
	 xml:space="preserve">
<g>
	<defs>
		<rect id="SVGID_1_" width="220.608" height="309.267"/>
	</defs>
	<clipPath id="SVGID_2_">
		<use xlink:href="#SVGID_1_"  overflow="visible"/>
	</clipPath>
	<path clip-path="url(#SVGID_2_)" fill="#FFE970" d="M19.329,0h112.584c1.054,0,2.064,0.418,2.812,1.162l84.71,84.38
		c0.751,0.749,1.173,1.765,1.173,2.825v197.583c0,12.877-10.438,23.316-23.314,23.316H23.315C10.438,309.267,0,298.828,0,285.951
		V19.329C0,8.65,8.66,0,19.329,0"/>
	<path clip-path="url(#SVGID_2_)" fill="#FFCD00" d="M220.608,86.788h-67.372c-10.67,0-19.329-8.659-19.329-19.329V0L220.608,86.788
		z"/>
	<path clip-path="url(#SVGID_2_)" fill="#4C4C4C" d="M59.803,0v20.201h-10.1c-2.789,0-5.051,2.261-5.051,5.05
		c0,2.79,2.262,5.051,5.051,5.051h10.1v20.201h-10.1c-2.789,0-5.051,2.261-5.051,5.051c0,2.789,2.262,5.05,5.051,5.05h10.1v20.201
		h-10.1c-2.789,0-5.051,2.261-5.051,5.05c0,2.79,2.262,5.051,5.051,5.051h10.1v20.201h-10.1c-2.789,0-5.051,2.262-5.051,5.051
		s2.262,5.05,5.051,5.05h10.1v20.202h-10.1c-2.789,0-5.051,2.261-5.051,5.05s2.262,5.05,5.051,5.05h10.1v20.201h-2.525
		c-2.262,0.001-4.248,1.506-4.861,3.685l-5.627,20.008c-1.396,2.542-2.13,5.394-2.138,8.295c0,10.211,9.062,18.517,20.202,18.517
		c11.139,0,20.201-8.306,20.201-18.517c-0.007-2.901-0.741-5.753-2.137-8.295l-5.627-20.008c-0.613-2.179-2.599-3.684-4.862-3.685
		h-2.525v-20.201h10.1c2.79,0,5.051-2.261,5.051-5.05s-2.261-5.05-5.051-5.05h-10.1v-20.202h10.1c2.79,0,5.051-2.261,5.051-5.05
		s-2.261-5.051-5.051-5.051h-10.1V90.907h10.1c2.79,0,5.051-2.261,5.051-5.051c0-2.789-2.261-5.05-5.051-5.05h-10.1V60.604h10.1
		c2.79,0,5.051-2.261,5.051-5.05c0-2.79-2.261-5.051-5.051-5.051h-10.1V30.303h10.1c2.79,0,5.051-2.261,5.051-5.051
		c0-2.789-2.261-5.05-5.051-5.05h-10.1V0 M61.104,181.814h7.499l4.76,16.922c0.122,0.432,0.301,0.847,0.531,1.23
		c0.69,1.123,1.057,2.414,1.061,3.732c0,4.641-4.532,8.417-10.101,8.417s-10.101-3.776-10.101-8.417
		c0.003-1.318,0.371-2.609,1.06-3.732c0.231-0.384,0.41-0.799,0.531-1.23L61.104,181.814z"/>
</g>
</svg>
