<?xml version="1.0" encoding="utf-8"?>
<!-- Generator: Adobe Illustrator 16.0.0, SVG Export Plug-In . SVG Version: 6.00 Build 0)  -->
<!DOCTYPE svg PUBLIC "-//W3C//DTD SVG 1.1//EN" "http://www.w3.org/Graphics/SVG/1.1/DTD/svg11.dtd">
<svg version="1.1" id="Layer_1" xmlns="http://www.w3.org/2000/svg" xmlns:xlink="http://www.w3.org/1999/xlink" x="0px" y="0px"
	 width="19.75px" height="19.75px" viewBox="0 0 19.75 19.75" enable-background="new 0 0 19.75 19.75" xml:space="preserve">
<g>
	<defs>
		<rect id="SVGID_1_" width="19.75" height="19.75"/>
	</defs>
	<clipPath id="SVGID_2_">
		<use xlink:href="#SVGID_1_"  overflow="visible"/>
	</clipPath>
	
		<path clip-path="url(#SVGID_2_)" fill="none" stroke="#777777" stroke-width="0.75" stroke-linecap="round" stroke-linejoin="round" stroke-miterlimit="10" d="
		M7.973,10.102C6.809,9.61,5.404,9.835,4.454,10.785l-3.14,3.14c-1.247,1.247-1.252,3.282-0.012,4.523
		c1.24,1.24,3.276,1.234,4.524-0.013l3.139-3.141c0.95-0.949,1.175-2.353,0.684-3.518"/>
	
		<path clip-path="url(#SVGID_2_)" fill="none" stroke="#777777" stroke-width="0.75" stroke-linecap="round" stroke-linejoin="round" stroke-miterlimit="10" d="
		M11.777,9.648c1.164,0.492,2.568,0.267,3.519-0.683l3.141-3.14c1.247-1.247,1.252-3.282,0.012-4.523
		c-1.24-1.24-3.276-1.235-4.524,0.012l-3.139,3.14c-0.95,0.95-1.175,2.354-0.684,3.519"/>
	
		<line clip-path="url(#SVGID_2_)" fill="none" stroke="#777777" stroke-width="0.75" stroke-linecap="round" stroke-linejoin="round" stroke-miterlimit="10" x1="5.802" y1="13.998" x2="14.177" y2="5.623"/>
</g>
</svg>
