<?xml version="1.0" encoding="utf-8"?>
<!-- Generator: Adobe Illustrator 16.0.0, SVG Export Plug-In . SVG Version: 6.00 Build 0)  -->
<!DOCTYPE svg PUBLIC "-//W3C//DTD SVG 1.1//EN" "http://www.w3.org/Graphics/SVG/1.1/DTD/svg11.dtd">
<svg version="1.1" id="Layer_1" xmlns="http://www.w3.org/2000/svg" xmlns:xlink="http://www.w3.org/1999/xlink" x="0px" y="0px"
	 width="72.248px" height="43.411px" viewBox="0 0 72.248 43.411" enable-background="new 0 0 72.248 43.411" xml:space="preserve">
<g>
	<defs>
		<rect id="SVGID_1_" width="72.248" height="43.411"/>
	</defs>
	<clipPath id="SVGID_2_">
		<use xlink:href="#SVGID_1_"  overflow="visible"/>
	</clipPath>
	<path clip-path="url(#SVGID_2_)" fill="#B8B8B8" d="M56.968,27.743c-2.256-0.542-3.372-3.499-1.377-5.597
		c2.669-2.562,4.447-6.939,4.447-11.294c0-6.746-4.251-10.853-9.496-10.853c-5.244,0-9.496,4.107-9.496,10.853
		c0,4.341,1.768,8.703,4.421,11.269h-0.016c2.035,2.107,0.901,5.102-1.379,5.631c-1.167,0.226-2.289,0.51-3.361,0.835
		c5.067,2.502,8.421,6.023,8.421,9.397c0,2.514-1.599,4.203-4.432,5.334c1.86,0.064,3.818,0.093,5.842,0.093
		c11.988,0,21.706-0.93,21.706-5.427C72.248,34.327,65.819,29.44,56.968,27.743"/>
	<path clip-path="url(#SVGID_2_)" fill="#B8B8B8" d="M28.131,27.743c-2.256-0.542-3.373-3.499-1.377-5.597
		c2.669-2.562,4.447-6.939,4.447-11.294c0-6.746-4.251-10.853-9.496-10.853s-9.496,4.107-9.496,10.853
		c0,4.341,1.767,8.703,4.421,11.269h-0.016c2.034,2.107,0.901,5.102-1.379,5.631C6.406,29.456,0,34.333,0,37.984
		c0,4.497,9.717,5.427,21.705,5.427c11.988,0,21.706-0.93,21.706-5.427C43.411,34.327,36.982,29.44,28.131,27.743"/>
</g>
</svg>
